<svg width="32" height="32" viewBox="0 0 32 32" fill="none" xmlns="http://www.w3.org/2000/svg">
<path d="M16.4067 23.2119C16.6226 23.2119 16.8052 23.1289 16.9463 22.9878L23.5205 16.563C23.6782 16.4053 23.7695 16.2144 23.7695 16.0068C23.7695 15.791 23.6782 15.5835 23.5205 15.4507L16.9463 9.01758C16.7969 8.87646 16.6226 8.79346 16.4067 8.79346C15.9751 8.79346 15.6431 9.12549 15.6431 9.55713C15.6431 9.75635 15.7344 9.95557 15.8672 10.0967L21.9102 16.0068L15.8672 21.917C15.7344 22.0581 15.6431 22.249 15.6431 22.4565C15.6431 22.8882 15.9751 23.2119 16.4067 23.2119ZM8.98584 23.2119C9.20166 23.2119 9.38428 23.1289 9.53369 22.9878L16.1079 16.563C16.2656 16.4053 16.3486 16.2144 16.3486 16.0068C16.3486 15.791 16.2656 15.5835 16.1079 15.4507L9.52539 9.01758C9.38428 8.87646 9.20166 8.79346 8.98584 8.79346C8.5542 8.79346 8.23047 9.12549 8.23047 9.55713C8.23047 9.75635 8.31348 9.95557 8.44629 10.0967L14.4893 16.0068L8.44629 21.917C8.31348 22.0581 8.23047 22.249 8.23047 22.4565C8.23047 22.8882 8.5542 23.2119 8.98584 23.2119Z" fill="#007AFF"/>
</svg>
