<svg width="32" height="32" viewBox="0 0 32 32" fill="none" xmlns="http://www.w3.org/2000/svg">
<path d="M16.5 19.2646C16.8569 19.2646 17.1558 18.9658 17.1558 18.6172V10.0923L17.106 8.84717L17.6704 9.43652L18.9238 10.7812C19.04 10.9141 19.2144 10.9805 19.3721 10.9805C19.7207 10.9805 19.978 10.7314 19.978 10.3911C19.978 10.2168 19.9116 10.084 19.7871 9.95947L16.9814 7.25342C16.8154 7.0874 16.666 7.0293 16.5 7.0293C16.334 7.0293 16.1846 7.0874 16.0186 7.25342L13.2129 9.95947C13.0884 10.084 13.0137 10.2168 13.0137 10.3911C13.0137 10.7314 13.271 10.9805 13.6113 10.9805C13.7773 10.9805 13.9517 10.9141 14.0679 10.7812L15.3296 9.43652L15.894 8.84717L15.8359 10.0923V18.6172C15.8359 18.9658 16.1431 19.2646 16.5 19.2646ZM11.7354 25.7642H21.2563C22.9912 25.7642 23.8628 24.9009 23.8628 23.1909V14.9067C23.8628 13.1968 22.9912 12.3335 21.2563 12.3335H18.9404V13.6699H21.2314C22.0532 13.6699 22.5264 14.1182 22.5264 14.9814V23.1162C22.5264 23.9795 22.0532 24.4277 21.2314 24.4277H11.752C10.9219 24.4277 10.4653 23.9795 10.4653 23.1162V14.9814C10.4653 14.1182 10.9219 13.6699 11.752 13.6699H14.0513V12.3335H11.7354C10.0005 12.3335 9.12891 13.1968 9.12891 14.9067V23.1909C9.12891 24.9009 10.0005 25.7642 11.7354 25.7642Z" fill="#007AFF"/>
</svg>
