<svg width="32" height="32" viewBox="0 0 32 32" fill="none" xmlns="http://www.w3.org/2000/svg">
<path d="M8.94434 19.2109H23.0474C24.7656 19.2109 25.6123 18.3726 25.6123 16.6792V11.0679C25.6123 9.36621 24.7656 8.53613 23.0474 8.53613H8.94434C7.23438 8.53613 6.37939 9.36621 6.37939 11.0679V16.6792C6.37939 18.3726 7.23438 19.2109 8.94434 19.2109ZM8.96094 17.8745C8.14746 17.8745 7.71582 17.4595 7.71582 16.6128V11.1343C7.71582 10.2876 8.14746 9.86426 8.96094 9.86426H23.0308C23.8442 9.86426 24.2759 10.2876 24.2759 11.1343V16.6128C24.2759 17.4595 23.8442 17.8745 23.0308 17.8745H8.96094ZM7.20947 23.4194H8.96094C9.20166 23.4194 9.39258 23.2368 9.39258 22.9961V21.2612C9.39258 21.0039 9.20996 20.8213 8.96094 20.8213H7.20947C6.94385 20.8213 6.76953 21.0039 6.76953 21.2612V22.9961C6.76953 23.2368 6.95215 23.4194 7.20947 23.4194ZM11.1689 23.4194H12.9204C13.1611 23.4194 13.3521 23.2368 13.3521 22.9961V21.2612C13.3521 21.0039 13.1694 20.8213 12.9204 20.8213H11.1689C10.9033 20.8213 10.729 21.0039 10.729 21.2612V22.9961C10.729 23.2368 10.9116 23.4194 11.1689 23.4194ZM15.1284 23.4194H16.8799C17.1206 23.4194 17.3115 23.2368 17.3115 22.9961V21.2612C17.3115 21.0039 17.1289 20.8213 16.8799 20.8213H15.1284C14.8628 20.8213 14.6885 21.0039 14.6885 21.2612V22.9961C14.6885 23.2368 14.8711 23.4194 15.1284 23.4194ZM19.0879 23.4194H20.8394C21.0801 23.4194 21.271 23.2368 21.271 22.9961V21.2612C21.271 21.0039 21.0884 20.8213 20.8394 20.8213H19.0879C18.8223 20.8213 18.6479 21.0039 18.6479 21.2612V22.9961C18.6479 23.2368 18.8306 23.4194 19.0879 23.4194ZM23.0474 23.4194H24.7988C25.0396 23.4194 25.2305 23.2368 25.2305 22.9961V21.2612C25.2305 21.0039 25.0479 20.8213 24.7988 20.8213H23.0474C22.7817 20.8213 22.6074 21.0039 22.6074 21.2612V22.9961C22.6074 23.2368 22.79 23.4194 23.0474 23.4194Z" fill="#007AFF"/>
</svg>
