<svg width="32" height="32" viewBox="0 0 32 32" fill="none" xmlns="http://www.w3.org/2000/svg">
<path d="M9.94043 15.3345H13.7256C14.7798 15.3345 15.311 14.8032 15.311 13.7075V9.99707C15.311 8.90137 14.7798 8.37842 13.7256 8.37842H9.94043C8.88623 8.37842 8.35498 8.90137 8.35498 9.99707V13.7075C8.35498 14.8032 8.88623 15.3345 9.94043 15.3345ZM18.2744 15.3345H22.0513C23.1055 15.3345 23.6367 14.8032 23.6367 13.7075V9.99707C23.6367 8.90137 23.1055 8.37842 22.0513 8.37842H18.2744C17.2119 8.37842 16.6807 8.90137 16.6807 9.99707V13.7075C16.6807 14.8032 17.2119 15.3345 18.2744 15.3345ZM9.95703 14.1641C9.6665 14.1641 9.52539 14.0146 9.52539 13.7075V9.99707C9.52539 9.69824 9.6665 9.54883 9.95703 9.54883H13.7007C13.9912 9.54883 14.1406 9.69824 14.1406 9.99707V13.7075C14.1406 14.0146 13.9912 14.1641 13.7007 14.1641H9.95703ZM18.291 14.1641C17.9922 14.1641 17.8511 14.0146 17.8511 13.7075V9.99707C17.8511 9.69824 17.9922 9.54883 18.291 9.54883H22.0347C22.3252 9.54883 22.4663 9.69824 22.4663 9.99707V13.7075C22.4663 14.0146 22.3252 14.1641 22.0347 14.1641H18.291ZM9.94043 23.6602H13.7256C14.7798 23.6602 15.311 23.1372 15.311 22.0415V18.3228C15.311 17.2354 14.7798 16.7041 13.7256 16.7041H9.94043C8.88623 16.7041 8.35498 17.2354 8.35498 18.3228V22.0415C8.35498 23.1372 8.88623 23.6602 9.94043 23.6602ZM18.2744 23.6602H22.0513C23.1055 23.6602 23.6367 23.1372 23.6367 22.0415V18.3228C23.6367 17.2354 23.1055 16.7041 22.0513 16.7041H18.2744C17.2119 16.7041 16.6807 17.2354 16.6807 18.3228V22.0415C16.6807 23.1372 17.2119 23.6602 18.2744 23.6602ZM9.95703 22.4897C9.6665 22.4897 9.52539 22.3403 9.52539 22.0415V18.3311C9.52539 18.0239 9.6665 17.8745 9.95703 17.8745H13.7007C13.9912 17.8745 14.1406 18.0239 14.1406 18.3311V22.0415C14.1406 22.3403 13.9912 22.4897 13.7007 22.4897H9.95703ZM18.291 22.4897C17.9922 22.4897 17.8511 22.3403 17.8511 22.0415V18.3311C17.8511 18.0239 17.9922 17.8745 18.291 17.8745H22.0347C22.3252 17.8745 22.4663 18.0239 22.4663 18.3311V22.0415C22.4663 22.3403 22.3252 22.4897 22.0347 22.4897H18.291Z" fill="#007AFF"/>
</svg>
