<svg width="32" height="32" viewBox="0 0 32 32" fill="none" xmlns="http://www.w3.org/2000/svg">
<path d="M8.67871 12.0391C9.25977 12.0391 9.72461 11.5742 9.72461 11.0015C9.72461 10.4204 9.25977 9.95557 8.67871 9.95557C8.09766 9.95557 7.63281 10.4204 7.63281 11.0015C7.63281 11.5742 8.09766 12.0391 8.67871 12.0391ZM12.3477 11.6655H23.6865C24.0601 11.6655 24.3589 11.375 24.3589 11.0015C24.3589 10.6196 24.0601 10.3291 23.6865 10.3291H12.3477C11.9658 10.3291 11.6753 10.6196 11.6753 11.0015C11.6753 11.375 11.9658 11.6655 12.3477 11.6655ZM8.67871 17.061C9.25977 17.061 9.72461 16.5962 9.72461 16.0151C9.72461 15.4341 9.25977 14.9692 8.67871 14.9692C8.09766 14.9692 7.63281 15.4341 7.63281 16.0151C7.63281 16.5962 8.09766 17.061 8.67871 17.061ZM12.3477 16.6875H23.6865C24.0601 16.6875 24.3589 16.3887 24.3589 16.0151C24.3589 15.6416 24.0601 15.3511 23.6865 15.3511H12.3477C11.9658 15.3511 11.6753 15.6416 11.6753 16.0151C11.6753 16.3887 11.9658 16.6875 12.3477 16.6875ZM8.67871 22.083C9.25977 22.083 9.72461 21.6099 9.72461 21.0371C9.72461 20.4561 9.25977 19.9912 8.67871 19.9912C8.09766 19.9912 7.63281 20.4561 7.63281 21.0371C7.63281 21.6099 8.09766 22.083 8.67871 22.083ZM12.3477 21.7012H23.6865C24.0601 21.7012 24.3589 21.4106 24.3589 21.0371C24.3589 20.6553 24.0601 20.3647 23.6865 20.3647H12.3477C11.9658 20.3647 11.6753 20.6553 11.6753 21.0371C11.6753 21.4106 11.9658 21.7012 12.3477 21.7012Z" fill="#007AFF"/>
</svg>
