<svg width="32" height="32" viewBox="0 0 32 32" fill="none" xmlns="http://www.w3.org/2000/svg">
<path d="M15.064 21.8877C16.4502 21.8877 17.7285 21.4395 18.7744 20.6924L22.709 24.627C22.8916 24.8096 23.1323 24.9009 23.3896 24.9009C23.9292 24.9009 24.311 24.4858 24.311 23.9546C24.311 23.7056 24.228 23.4648 24.0454 23.2905L20.1357 19.3726C20.9575 18.2935 21.4473 16.957 21.4473 15.5044C21.4473 11.9932 18.5752 9.12109 15.064 9.12109C11.561 9.12109 8.68066 11.9849 8.68066 15.5044C8.68066 19.0156 11.5527 21.8877 15.064 21.8877ZM15.064 20.5098C12.3247 20.5098 10.0586 18.2437 10.0586 15.5044C10.0586 12.7651 12.3247 10.499 15.064 10.499C17.8032 10.499 20.0693 12.7651 20.0693 15.5044C20.0693 18.2437 17.8032 20.5098 15.064 20.5098Z" fill="#007AFF"/>
</svg>
