<svg width="32" height="32" viewBox="0 0 32 32" fill="none" xmlns="http://www.w3.org/2000/svg">
<path d="M17.0146 25.8057L25.1079 17.6958C25.7305 17.0732 25.772 16.7163 25.772 15.8447V12.6904C25.772 11.8105 25.5645 11.5366 24.9336 10.9058L23.0244 8.99658C22.4019 8.37402 22.1279 8.1582 21.248 8.1582H18.0854C17.2139 8.1582 16.8652 8.19971 16.2427 8.82227L8.12451 16.9238C6.9375 18.1108 6.9126 19.3394 8.13281 20.5513L13.3872 25.7974C14.6074 27.0093 15.8276 26.9927 17.0146 25.8057ZM16.1182 24.8013C15.5205 25.3989 14.8896 25.4072 14.2837 24.793L9.12891 19.6465C8.52295 19.0405 8.53125 18.4014 9.12061 17.812L17.1807 9.76855C17.3467 9.60254 17.521 9.49463 17.8032 9.49463H21.2979C21.5552 9.49463 21.7295 9.59424 21.9038 9.76855L24.1699 12.0264C24.3442 12.2007 24.4355 12.375 24.4355 12.6323V16.1353C24.4355 16.4092 24.3359 16.5835 24.1699 16.7495L16.1182 24.8013ZM20.2769 14.7988C20.9243 14.7988 21.4141 14.2925 21.4141 13.6616C21.4141 13.0225 20.9243 12.5244 20.2769 12.5244C19.6211 12.5244 19.1396 13.0225 19.1396 13.6616C19.1396 14.2925 19.6211 14.7988 20.2769 14.7988Z" fill="#007AFF"/>
</svg>
